<?xml version="1.0" encoding="utf-8"?>
<!-- Generator: Adobe Illustrator 22.1.0, SVG Export Plug-In . SVG Version: 6.00 Build 0)  -->
<svg version="1.1" id="Layer_1" xmlns="http://www.w3.org/2000/svg" xmlns:xlink="http://www.w3.org/1999/xlink" x="0px" y="0px"
	 viewBox="0 0 142 174.8" style="enable-background:new 0 0 142 174.8;" xml:space="preserve">
<style type="text/css">
	.st0{fill:#adbdd2;}
</style>
<g>
	<g>
		<path class="st0" d="M79.8,44c-3.3,0-6-2.7-6-6V0H15C6.8,0,0,6.8,0,15.1v120.6c0,8.3,6.8,15.1,15,15.1h87.6c8.3,0,15-6.8,15-15.1
			V44H79.8z"/>
	</g>
	<g>
		<path class="st0" d="M128.3,59.8v97.8c0,1.9-1.6,3.4-3.4,3.4l-99.7,0c1.6,7.8,8.5,13.7,16.8,13.7h82.9c9.4,0,17.2-7.7,17.2-17.2
			V73.5L128.3,59.8z"/>
	</g>
	<polygon class="st0" points="116,45.6 72.2,1.6 73.8,0 117.6,44 	"/>
</g>
</svg>
